<svg xmlns="http://www.w3.org/2000/svg" xmlns:xlink="http://www.w3.org/1999/xlink" version="1.0" x="0" y="0" width="2400" height="1444.881633683747" viewBox="139.4 106.5777572631836 61.2 36.84448165893555" preserveAspectRatio="xMidYMid meet" color-interpolation-filters="sRGB"><g><defs><linearGradient id="92" x1="0%" y1="0%" x2="100%" y2="0%"><stop offset="0%" stop-color="#fa71cd"></stop> <stop offset="100%" stop-color="#9b59b6"></stop></linearGradient><linearGradient id="93" x1="0%" y1="0%" x2="100%" y2="0%"><stop offset="0%" stop-color="#f9d423"></stop> <stop offset="100%" stop-color="#f83600"></stop></linearGradient><linearGradient id="94" x1="0%" y1="0%" x2="100%" y2="0%"><stop offset="0%" stop-color="#0064d2"></stop> <stop offset="100%" stop-color="#1cb0f6"></stop></linearGradient><linearGradient id="95" x1="0%" y1="0%" x2="100%" y2="0%"><stop offset="0%" stop-color="#f00978"></stop> <stop offset="100%" stop-color="#3f51b1"></stop></linearGradient><linearGradient id="96" x1="0%" y1="0%" x2="100%" y2="0%"><stop offset="0%" stop-color="#7873f5"></stop> <stop offset="100%" stop-color="#ec77ab"></stop></linearGradient><linearGradient id="97" x1="0%" y1="0%" x2="100%" y2="0%"><stop offset="0%" stop-color="#f9d423"></stop> <stop offset="100%" stop-color="#e14fad"></stop></linearGradient><linearGradient id="98" x1="0%" y1="0%" x2="100%" y2="0%"><stop offset="0%" stop-color="#009efd"></stop> <stop offset="100%" stop-color="#2af598"></stop></linearGradient><linearGradient id="99" x1="0%" y1="0%" x2="100%" y2="0%"><stop offset="0%" stop-color="#ffcc00"></stop> <stop offset="100%" stop-color="#00b140"></stop></linearGradient><linearGradient id="100" x1="0%" y1="0%" x2="100%" y2="0%"><stop offset="0%" stop-color="#d51007"></stop> <stop offset="100%" stop-color="#ff8177"></stop></linearGradient><linearGradient id="102" x1="0%" y1="0%" x2="100%" y2="0%"><stop offset="0%" stop-color="#a2b6df"></stop> <stop offset="100%" stop-color="#0c3483"></stop></linearGradient><linearGradient id="103" x1="0%" y1="0%" x2="100%" y2="0%"><stop offset="0%" stop-color="#7ac5d8"></stop> <stop offset="100%" stop-color="#eea2a2"></stop></linearGradient><linearGradient id="104" x1="0%" y1="0%" x2="100%" y2="0%"><stop offset="0%" stop-color="#00ecbc"></stop> <stop offset="100%" stop-color="#007adf"></stop></linearGradient><linearGradient id="105" x1="0%" y1="0%" x2="100%" y2="0%"><stop offset="0%" stop-color="#b88746"></stop> <stop offset="100%" stop-color="#fdf5a6"></stop></linearGradient></defs><g class="imagesvg isNoFont" transform="translate(140,107.17775917053223)"><g><rect fill="#35495e" fill-opacity="0" stroke-width="2" x="0" y="0" width="60" height="35.64448193715878" class="image-rect"></rect> <svg filter="url(#colors953494323)" x="0" y="0" width="60" height="35.64448193715878" filtersec="colorsf6329675185" class="image-svg-svg primary" style="overflow: visible;"><svg xmlns="http://www.w3.org/2000/svg" xmlns:xlink="http://www.w3.org/1999/xlink" version="1.1" x="0px" y="0px" viewBox="0 12.98900032043457 64.00199890136719 38.022003173828125" enable-background="new 0 0 64 64" xml:space="preserve"><g><path d="M1,22.989c-0.553,0-1,0.448-1,1s0.447,1,1,1h1.002v4c0,0.552,0.447,1,1,1s1-0.448,1-1v-4h3.415l11.969,7.199l-1.067,1.071   c-1.779-1.456-3.988-2.248-6.317-2.248c-5.514,0-10,4.486-10,10s4.486,10,10,10c5.118,0,9.345-3.868,9.926-8.833   c1.188,0.399,2.052,1.51,2.052,2.83c0,0.553,0.447,1,1,1h20.386c1.735,2.974,4.952,4.981,8.636,4.981c5.514,0,10-4.486,10-10   c0-5.286-4.126-9.616-9.325-9.966l0.648-0.426c0.004-0.003,0.009-0.004,0.014-0.007c0.003-0.002,0.004-0.005,0.006-0.006   l4.206-2.765c0.226-0.148,0.382-0.38,0.433-0.645c0.052-0.264-0.006-0.538-0.159-0.76L50.823,13.42   c-0.187-0.27-0.494-0.431-0.822-0.431h-2c-0.553,0-1,0.448-1,1v6c0,0.552-0.449,1.001-1.001,1.001h-0.001v-2.503   c0-1.378-1.121-2.5-2.5-2.5s-2.5,1.122-2.5,2.5v2.282l-8.802-1.761c-0.037-0.008-0.073,0.003-0.11,0   c-0.03-0.003-0.056-0.018-0.087-0.018c-2.966,0-5.43,2.166-5.908,4.998h-8.61l-3.7-4.625c-0.19-0.237-0.478-0.375-0.781-0.375   H1.044c-0.039,0-0.073,0.018-0.111,0.022c-0.07,0.008-0.137,0.019-0.204,0.041c-0.061,0.021-0.113,0.048-0.168,0.079   c-0.057,0.032-0.108,0.064-0.158,0.106c-0.052,0.044-0.094,0.094-0.136,0.148c-0.024,0.032-0.059,0.052-0.08,0.087   c-0.013,0.021-0.013,0.045-0.023,0.066c-0.03,0.059-0.048,0.12-0.065,0.185c-0.019,0.066-0.036,0.13-0.04,0.198   c-0.002,0.023-0.014,0.043-0.014,0.067c0,0.041,0.019,0.075,0.022,0.114c0.009,0.069,0.019,0.134,0.041,0.2   c0.021,0.062,0.048,0.116,0.08,0.172c0.031,0.055,0.063,0.106,0.104,0.155c0.045,0.053,0.096,0.095,0.15,0.138   c0.031,0.024,0.052,0.058,0.086,0.079l3.563,2.143H1z M12.001,49.011c-4.411,0-8-3.589-8-8s3.589-8,8-8   c1.794,0,3.496,0.594,4.892,1.678l-2.142,2.147c-0.81-0.535-1.758-0.825-2.75-0.825c-2.757,0-5,2.243-5,5s2.243,5,5,5   c2.414,0,4.435-1.721,4.899-4h3.031C19.437,45.951,16.072,49.011,12.001,49.011z M11.078,40.63   c-0.041,0.099-0.055,0.204-0.063,0.31c-0.002,0.024-0.015,0.046-0.015,0.071c0,0.006,0.003,0.011,0.003,0.018   c0.003,0.124,0.025,0.248,0.074,0.364c0.102,0.245,0.297,0.44,0.541,0.541c0.122,0.051,0.252,0.077,0.382,0.077h2.815   c-0.414,1.161-1.514,2-2.815,2c-1.654,0-3-1.346-3-3s1.346-3,3-3c0.452,0,0.885,0.109,1.281,0.299l-1.987,1.993   C11.202,40.396,11.129,40.507,11.078,40.63z M62,40.989c0,4.411-3.589,8-8,8s-8-3.589-8-8c0-2.521,1.175-4.77,3.003-6.237   l0.482-0.317l0.913,1.767C48.945,37.297,48,39.033,48,40.989c0,3.309,2.691,6,6,6s6-2.691,6-6s-2.691-6-6-6   c-0.638,0-1.251,0.102-1.827,0.287l-0.925-1.789c0.859-0.316,1.784-0.498,2.752-0.498C58.411,32.989,62,36.578,62,40.989z    M53.111,41.448c0.178,0.344,0.527,0.541,0.89,0.541c0.154,0,0.312-0.036,0.458-0.111c0.491-0.254,0.683-0.857,0.43-1.348   l-1.775-3.435c0.286-0.064,0.581-0.106,0.887-0.106c2.206,0,4,1.794,4,4s-1.794,4-4,4s-4-1.794-4-4   c0-1.182,0.524-2.233,1.341-2.966L53.111,41.448z M57.595,26.711l-2.562,1.684l-6.032-8.712v-4.693h0.477L57.595,26.711z    M43.499,17.987c0.275,0,0.5,0.224,0.5,0.5s-0.225,0.5-0.5,0.5s-0.5-0.224-0.5-0.5S43.224,17.987,43.499,17.987z M31.941,20.997   l8.895,1.779c-0.306,0.712-1.013,1.212-1.836,1.212c-0.002,0-0.003,0.001-0.005,0.001H28.145   C28.587,22.289,30.111,21.024,31.941,20.997z M16.22,25.614c0.19,0.237,0.478,0.375,0.781,0.375H39c0.004,0,0.006-0.002,0.01-0.002   c2.133-0.005,3.864-1.692,3.969-3.801c0.001,0,0.001,0,0.001-0.001c0-0.001,0-0.002,0-0.003c0.003-0.065,0.02-0.127,0.02-0.193   v-1.053c0.161,0.033,0.329,0.051,0.5,0.051s0.339-0.018,0.5-0.051v1.054c0,0.552,0.447,1,1,1H46c0.866,0,1.643-0.375,2.19-0.964   l5.171,7.468l-4.087,2.686c-0.486,0.262-0.943,0.569-1.377,0.905l-0.104,0.068c-0.016,0.011-0.023,0.027-0.039,0.038   C45.47,35.026,44,37.838,44,40.989c0,1.052,0.166,2.065,0.468,3.019H25.877c-0.461-2.266-2.461-3.975-4.856-3.993   c-0.007,0-0.013-0.004-0.02-0.004H14.41l1.111-1.114c0.004-0.004,0.009-0.005,0.013-0.009s0.005-0.009,0.009-0.013l3.521-3.531l0,0   l0,0l2.608-2.616c0.07-0.063,0.133-0.136,0.185-0.221c0.017-0.027,0.018-0.059,0.031-0.087c0.026-0.055,0.044-0.11,0.06-0.168   c0.018-0.066,0.034-0.129,0.038-0.197c0.005-0.064-0.002-0.125-0.01-0.188c-0.008-0.062-0.017-0.12-0.035-0.179   c-0.021-0.065-0.052-0.125-0.087-0.186c-0.029-0.052-0.059-0.1-0.097-0.146c-0.021-0.024-0.028-0.054-0.052-0.077   c-0.035-0.035-0.081-0.05-0.12-0.079c-0.026-0.02-0.042-0.048-0.07-0.065L4.646,20.989h7.873L16.22,25.614z"></path><path d="M32.001,42.993c2.206,0,4-1.794,4-4s-1.794-4-4-4s-4,1.794-4,4S29.795,42.993,32.001,42.993z M32.001,36.993   c1.103,0,2,0.897,2,2s-0.897,2-2,2s-2-0.897-2-2S30.898,36.993,32.001,36.993z"></path><path d="M25.496,37.989c1.378,0,2.499-1.121,2.499-2.499s-1.121-2.499-2.499-2.499s-2.499,1.121-2.499,2.499   S24.118,37.989,25.496,37.989z M25.496,34.991c0.275,0,0.499,0.224,0.499,0.499s-0.224,0.499-0.499,0.499s-0.499-0.224-0.499-0.499   S25.221,34.991,25.496,34.991z"></path><path d="M34.033,32.816c-0.011,0.063-0.031,0.124-0.03,0.188c0.001,0.055,0.021,0.107,0.032,0.163   c0.014,0.073,0.021,0.147,0.051,0.217c0.004,0.008,0.002,0.016,0.006,0.023c0.048,0.104,0.114,0.191,0.189,0.27   c0.005,0.006,0.006,0.014,0.012,0.019l4,4.001c0.007,0.007,0.016,0.009,0.022,0.015c0.007,0.007,0.009,0.016,0.016,0.021   c0.059,0.053,0.128,0.082,0.195,0.118c0.038,0.021,0.07,0.053,0.11,0.068c0.117,0.045,0.24,0.07,0.363,0.07   c0.132,0,0.264-0.028,0.387-0.08c0.043-0.018,0.076-0.054,0.116-0.077c0.069-0.042,0.144-0.075,0.204-0.136   c0.007-0.007,0.009-0.016,0.016-0.023c0.006-0.006,0.015-0.008,0.021-0.015l8.98-9.979c0.276-0.288,0.366-0.723,0.189-1.107   c-0.06-0.128-0.143-0.236-0.241-0.325c-0.001,0-0.001-0.001-0.002-0.002c-0.02-0.018-0.045-0.022-0.064-0.039   c-0.082-0.062-0.167-0.121-0.264-0.155c-0.089-0.032-0.182-0.039-0.275-0.045c-0.033-0.002-0.064-0.015-0.098-0.014   c-0.142,0.004-0.279,0.039-0.408,0.102l-12.979,5.986c-0.057,0.026-0.096,0.071-0.145,0.106c-0.048,0.033-0.102,0.053-0.144,0.095   c-0.006,0.006-0.007,0.013-0.013,0.019c-0.054,0.056-0.087,0.124-0.126,0.189c-0.027,0.047-0.065,0.089-0.084,0.14   C34.047,32.689,34.045,32.753,34.033,32.816z M38.962,35.538l-2.24-2.241L44,29.94L38.962,35.538z"></path></g></svg></svg> <defs><filter id="colors953494323"><feColorMatrix type="matrix" values="0 0 0 0 0.99609375  0 0 0 0 0.99609375  0 0 0 0 0.99609375  0 0 0 1 0" class="icon-feColorMatrix "></feColorMatrix></filter> <filter id="colorsf6329675185"><feColorMatrix type="matrix" values="0 0 0 0 0.99609375  0 0 0 0 0.99609375  0 0 0 0 0.99609375  0 0 0 1 0" class="icon-fecolormatrix"></feColorMatrix></filter> <filter id="colorsb7159985365"><feColorMatrix type="matrix" values="0 0 0 0 0  0 0 0 0 0  0 0 0 0 0  0 0 0 1 0" class="icon-fecolormatrix"></feColorMatrix></filter></defs></g></g><defs v-gra="od"></defs></g></svg>