<svg xmlns="http://www.w3.org/2000/svg" xmlns:xlink="http://www.w3.org/1999/xlink" version="1.0" x="0" y="0" width="2400" height="388.6021100708111" viewBox="44.764401245117185 104.72215728759765 250.47119750976563 40.55568161010742" preserveAspectRatio="xMidYMid meet" color-interpolation-filters="sRGB"><g><defs><linearGradient id="92" x1="0%" y1="0%" x2="100%" y2="0%"><stop offset="0%" stop-color="#fa71cd"></stop> <stop offset="100%" stop-color="#9b59b6"></stop></linearGradient><linearGradient id="93" x1="0%" y1="0%" x2="100%" y2="0%"><stop offset="0%" stop-color="#f9d423"></stop> <stop offset="100%" stop-color="#f83600"></stop></linearGradient><linearGradient id="94" x1="0%" y1="0%" x2="100%" y2="0%"><stop offset="0%" stop-color="#0064d2"></stop> <stop offset="100%" stop-color="#1cb0f6"></stop></linearGradient><linearGradient id="95" x1="0%" y1="0%" x2="100%" y2="0%"><stop offset="0%" stop-color="#f00978"></stop> <stop offset="100%" stop-color="#3f51b1"></stop></linearGradient><linearGradient id="96" x1="0%" y1="0%" x2="100%" y2="0%"><stop offset="0%" stop-color="#7873f5"></stop> <stop offset="100%" stop-color="#ec77ab"></stop></linearGradient><linearGradient id="97" x1="0%" y1="0%" x2="100%" y2="0%"><stop offset="0%" stop-color="#f9d423"></stop> <stop offset="100%" stop-color="#e14fad"></stop></linearGradient><linearGradient id="98" x1="0%" y1="0%" x2="100%" y2="0%"><stop offset="0%" stop-color="#009efd"></stop> <stop offset="100%" stop-color="#2af598"></stop></linearGradient><linearGradient id="99" x1="0%" y1="0%" x2="100%" y2="0%"><stop offset="0%" stop-color="#ffcc00"></stop> <stop offset="100%" stop-color="#00b140"></stop></linearGradient><linearGradient id="100" x1="0%" y1="0%" x2="100%" y2="0%"><stop offset="0%" stop-color="#d51007"></stop> <stop offset="100%" stop-color="#ff8177"></stop></linearGradient><linearGradient id="102" x1="0%" y1="0%" x2="100%" y2="0%"><stop offset="0%" stop-color="#a2b6df"></stop> <stop offset="100%" stop-color="#0c3483"></stop></linearGradient><linearGradient id="103" x1="0%" y1="0%" x2="100%" y2="0%"><stop offset="0%" stop-color="#7ac5d8"></stop> <stop offset="100%" stop-color="#eea2a2"></stop></linearGradient><linearGradient id="104" x1="0%" y1="0%" x2="100%" y2="0%"><stop offset="0%" stop-color="#00ecbc"></stop> <stop offset="100%" stop-color="#007adf"></stop></linearGradient><linearGradient id="105" x1="0%" y1="0%" x2="100%" y2="0%"><stop offset="0%" stop-color="#b88746"></stop> <stop offset="100%" stop-color="#fdf5a6"></stop></linearGradient></defs><g fill="#fff" class="icon-text-wrapper icon-svg-group iconsvg" transform="translate(47.220001220703125,107.17775917053223)"><g class="iconsvg-imagesvg" transform="translate(0,0)"><g><rect fill="#fff" fill-opacity="0" stroke-width="2" x="0" y="0" width="60" height="35.64448193715878" class="image-rect"></rect> <svg filter="url(#colors2102277602)" x="0" y="0" width="60" height="35.64448193715878" filtersec="colorsf1279646047" class="image-svg-svg primary" style="overflow: visible;"><svg xmlns="http://www.w3.org/2000/svg" xmlns:xlink="http://www.w3.org/1999/xlink" version="1.1" x="0px" y="0px" viewBox="0 12.98900032043457 64.00199890136719 38.022003173828125" enable-background="new 0 0 64 64" xml:space="preserve"><g><path d="M1,22.989c-0.553,0-1,0.448-1,1s0.447,1,1,1h1.002v4c0,0.552,0.447,1,1,1s1-0.448,1-1v-4h3.415l11.969,7.199l-1.067,1.071   c-1.779-1.456-3.988-2.248-6.317-2.248c-5.514,0-10,4.486-10,10s4.486,10,10,10c5.118,0,9.345-3.868,9.926-8.833   c1.188,0.399,2.052,1.51,2.052,2.83c0,0.553,0.447,1,1,1h20.386c1.735,2.974,4.952,4.981,8.636,4.981c5.514,0,10-4.486,10-10   c0-5.286-4.126-9.616-9.325-9.966l0.648-0.426c0.004-0.003,0.009-0.004,0.014-0.007c0.003-0.002,0.004-0.005,0.006-0.006   l4.206-2.765c0.226-0.148,0.382-0.38,0.433-0.645c0.052-0.264-0.006-0.538-0.159-0.76L50.823,13.42   c-0.187-0.27-0.494-0.431-0.822-0.431h-2c-0.553,0-1,0.448-1,1v6c0,0.552-0.449,1.001-1.001,1.001h-0.001v-2.503   c0-1.378-1.121-2.5-2.5-2.5s-2.5,1.122-2.5,2.5v2.282l-8.802-1.761c-0.037-0.008-0.073,0.003-0.11,0   c-0.03-0.003-0.056-0.018-0.087-0.018c-2.966,0-5.43,2.166-5.908,4.998h-8.61l-3.7-4.625c-0.19-0.237-0.478-0.375-0.781-0.375   H1.044c-0.039,0-0.073,0.018-0.111,0.022c-0.07,0.008-0.137,0.019-0.204,0.041c-0.061,0.021-0.113,0.048-0.168,0.079   c-0.057,0.032-0.108,0.064-0.158,0.106c-0.052,0.044-0.094,0.094-0.136,0.148c-0.024,0.032-0.059,0.052-0.08,0.087   c-0.013,0.021-0.013,0.045-0.023,0.066c-0.03,0.059-0.048,0.12-0.065,0.185c-0.019,0.066-0.036,0.13-0.04,0.198   c-0.002,0.023-0.014,0.043-0.014,0.067c0,0.041,0.019,0.075,0.022,0.114c0.009,0.069,0.019,0.134,0.041,0.2   c0.021,0.062,0.048,0.116,0.08,0.172c0.031,0.055,0.063,0.106,0.104,0.155c0.045,0.053,0.096,0.095,0.15,0.138   c0.031,0.024,0.052,0.058,0.086,0.079l3.563,2.143H1z M12.001,49.011c-4.411,0-8-3.589-8-8s3.589-8,8-8   c1.794,0,3.496,0.594,4.892,1.678l-2.142,2.147c-0.81-0.535-1.758-0.825-2.75-0.825c-2.757,0-5,2.243-5,5s2.243,5,5,5   c2.414,0,4.435-1.721,4.899-4h3.031C19.437,45.951,16.072,49.011,12.001,49.011z M11.078,40.63   c-0.041,0.099-0.055,0.204-0.063,0.31c-0.002,0.024-0.015,0.046-0.015,0.071c0,0.006,0.003,0.011,0.003,0.018   c0.003,0.124,0.025,0.248,0.074,0.364c0.102,0.245,0.297,0.44,0.541,0.541c0.122,0.051,0.252,0.077,0.382,0.077h2.815   c-0.414,1.161-1.514,2-2.815,2c-1.654,0-3-1.346-3-3s1.346-3,3-3c0.452,0,0.885,0.109,1.281,0.299l-1.987,1.993   C11.202,40.396,11.129,40.507,11.078,40.63z M62,40.989c0,4.411-3.589,8-8,8s-8-3.589-8-8c0-2.521,1.175-4.77,3.003-6.237   l0.482-0.317l0.913,1.767C48.945,37.297,48,39.033,48,40.989c0,3.309,2.691,6,6,6s6-2.691,6-6s-2.691-6-6-6   c-0.638,0-1.251,0.102-1.827,0.287l-0.925-1.789c0.859-0.316,1.784-0.498,2.752-0.498C58.411,32.989,62,36.578,62,40.989z    M53.111,41.448c0.178,0.344,0.527,0.541,0.89,0.541c0.154,0,0.312-0.036,0.458-0.111c0.491-0.254,0.683-0.857,0.43-1.348   l-1.775-3.435c0.286-0.064,0.581-0.106,0.887-0.106c2.206,0,4,1.794,4,4s-1.794,4-4,4s-4-1.794-4-4   c0-1.182,0.524-2.233,1.341-2.966L53.111,41.448z M57.595,26.711l-2.562,1.684l-6.032-8.712v-4.693h0.477L57.595,26.711z    M43.499,17.987c0.275,0,0.5,0.224,0.5,0.5s-0.225,0.5-0.5,0.5s-0.5-0.224-0.5-0.5S43.224,17.987,43.499,17.987z M31.941,20.997   l8.895,1.779c-0.306,0.712-1.013,1.212-1.836,1.212c-0.002,0-0.003,0.001-0.005,0.001H28.145   C28.587,22.289,30.111,21.024,31.941,20.997z M16.22,25.614c0.19,0.237,0.478,0.375,0.781,0.375H39c0.004,0,0.006-0.002,0.01-0.002   c2.133-0.005,3.864-1.692,3.969-3.801c0.001,0,0.001,0,0.001-0.001c0-0.001,0-0.002,0-0.003c0.003-0.065,0.02-0.127,0.02-0.193   v-1.053c0.161,0.033,0.329,0.051,0.5,0.051s0.339-0.018,0.5-0.051v1.054c0,0.552,0.447,1,1,1H46c0.866,0,1.643-0.375,2.19-0.964   l5.171,7.468l-4.087,2.686c-0.486,0.262-0.943,0.569-1.377,0.905l-0.104,0.068c-0.016,0.011-0.023,0.027-0.039,0.038   C45.47,35.026,44,37.838,44,40.989c0,1.052,0.166,2.065,0.468,3.019H25.877c-0.461-2.266-2.461-3.975-4.856-3.993   c-0.007,0-0.013-0.004-0.02-0.004H14.41l1.111-1.114c0.004-0.004,0.009-0.005,0.013-0.009s0.005-0.009,0.009-0.013l3.521-3.531l0,0   l0,0l2.608-2.616c0.07-0.063,0.133-0.136,0.185-0.221c0.017-0.027,0.018-0.059,0.031-0.087c0.026-0.055,0.044-0.11,0.06-0.168   c0.018-0.066,0.034-0.129,0.038-0.197c0.005-0.064-0.002-0.125-0.01-0.188c-0.008-0.062-0.017-0.12-0.035-0.179   c-0.021-0.065-0.052-0.125-0.087-0.186c-0.029-0.052-0.059-0.1-0.097-0.146c-0.021-0.024-0.028-0.054-0.052-0.077   c-0.035-0.035-0.081-0.05-0.12-0.079c-0.026-0.02-0.042-0.048-0.07-0.065L4.646,20.989h7.873L16.22,25.614z"></path><path d="M32.001,42.993c2.206,0,4-1.794,4-4s-1.794-4-4-4s-4,1.794-4,4S29.795,42.993,32.001,42.993z M32.001,36.993   c1.103,0,2,0.897,2,2s-0.897,2-2,2s-2-0.897-2-2S30.898,36.993,32.001,36.993z"></path><path d="M25.496,37.989c1.378,0,2.499-1.121,2.499-2.499s-1.121-2.499-2.499-2.499s-2.499,1.121-2.499,2.499   S24.118,37.989,25.496,37.989z M25.496,34.991c0.275,0,0.499,0.224,0.499,0.499s-0.224,0.499-0.499,0.499s-0.499-0.224-0.499-0.499   S25.221,34.991,25.496,34.991z"></path><path d="M34.033,32.816c-0.011,0.063-0.031,0.124-0.03,0.188c0.001,0.055,0.021,0.107,0.032,0.163   c0.014,0.073,0.021,0.147,0.051,0.217c0.004,0.008,0.002,0.016,0.006,0.023c0.048,0.104,0.114,0.191,0.189,0.27   c0.005,0.006,0.006,0.014,0.012,0.019l4,4.001c0.007,0.007,0.016,0.009,0.022,0.015c0.007,0.007,0.009,0.016,0.016,0.021   c0.059,0.053,0.128,0.082,0.195,0.118c0.038,0.021,0.07,0.053,0.11,0.068c0.117,0.045,0.24,0.07,0.363,0.07   c0.132,0,0.264-0.028,0.387-0.08c0.043-0.018,0.076-0.054,0.116-0.077c0.069-0.042,0.144-0.075,0.204-0.136   c0.007-0.007,0.009-0.016,0.016-0.023c0.006-0.006,0.015-0.008,0.021-0.015l8.98-9.979c0.276-0.288,0.366-0.723,0.189-1.107   c-0.06-0.128-0.143-0.236-0.241-0.325c-0.001,0-0.001-0.001-0.002-0.002c-0.02-0.018-0.045-0.022-0.064-0.039   c-0.082-0.062-0.167-0.121-0.264-0.155c-0.089-0.032-0.182-0.039-0.275-0.045c-0.033-0.002-0.064-0.015-0.098-0.014   c-0.142,0.004-0.279,0.039-0.408,0.102l-12.979,5.986c-0.057,0.026-0.096,0.071-0.145,0.106c-0.048,0.033-0.102,0.053-0.144,0.095   c-0.006,0.006-0.007,0.013-0.013,0.019c-0.054,0.056-0.087,0.124-0.126,0.189c-0.027,0.047-0.065,0.089-0.084,0.14   C34.047,32.689,34.045,32.753,34.033,32.816z M38.962,35.538l-2.24-2.241L44,29.94L38.962,35.538z"></path></g></svg></svg> <defs><filter id="colors2102277602"><feColorMatrix type="matrix" values="0 0 0 0 0.99609375  0 0 0 0 0.99609375  0 0 0 0 0.99609375  0 0 0 1 0" class="icon-feColorMatrix "></feColorMatrix></filter> <filter id="colorsf1279646047"><feColorMatrix type="matrix" values="0 0 0 0 0.99609375  0 0 0 0 0.99609375  0 0 0 0 0.99609375  0 0 0 1 0" class="icon-fecolormatrix"></feColorMatrix></filter> <filter id="colorsb9658068279"><feColorMatrix type="matrix" values="0 0 0 0 0  0 0 0 0 0  0 0 0 0 0  0 0 0 1 0" class="icon-fecolormatrix"></feColorMatrix></filter></defs></g></g> <g transform="translate(67,11.962241172790527)"><g fill-rule="" class="tp-name iconsvg-namesvg"><g transform="scale(1)"><g><path d="M9.78-4.48L9.78-0.82Q9.78-0.64 9.72-0.49 9.66-0.34 9.55-0.23 9.44-0.12 9.29-0.06 9.14 0 8.96 0L8.96 0 3.1 0Q2.88 0 2.62-0.05 2.36-0.11 2.11-0.22 1.86-0.33 1.62-0.51 1.39-0.69 1.22-0.94 1.04-1.19 0.93-1.53 0.82-1.86 0.82-2.28L0.82-2.28 0.82-6.68Q0.82-6.9 0.88-7.16 0.93-7.42 1.04-7.67 1.16-7.93 1.34-8.16 1.52-8.39 1.77-8.57 2.02-8.75 2.36-8.85 2.69-8.96 3.1-8.96L3.1-8.96 9.71-8.96 9.71-7.33 3.1-7.33Q2.79-7.33 2.62-7.17 2.45-7 2.45-6.67L2.45-6.67 2.45-2.28Q2.45-1.97 2.62-1.8 2.79-1.62 3.1-1.62L3.1-1.62 8.16-1.62 8.16-3.66 3.84-3.66 3.84-5.3 8.96-5.3Q9.14-5.3 9.29-5.23 9.44-5.17 9.55-5.05 9.66-4.94 9.72-4.79 9.78-4.65 9.78-4.48L9.78-4.48ZM18.68-6.75L18.68-0.82Q18.68-0.64 18.62-0.49 18.55-0.34 18.44-0.23 18.33-0.12 18.19-0.06 18.04 0 17.87 0L17.87 0 14.2 0Q13.9 0 13.56-0.07 13.22-0.14 12.89-0.29 12.56-0.44 12.25-0.68 11.94-0.91 11.71-1.25 11.48-1.58 11.34-2.02 11.19-2.46 11.19-3L11.19-3 11.19-6.75 12.82-6.75 12.82-3Q12.82-2.69 12.93-2.43 13.04-2.18 13.22-2 13.41-1.82 13.67-1.72 13.92-1.62 14.21-1.62L14.21-1.62 17.05-1.62 17.05-6.75 18.68-6.75ZM26.23-4.48L26.23 0 24.61 0 24.61-4.48Q24.61-4.8 24.44-4.96 24.27-5.13 23.94-5.13L23.94-5.13 21.83-5.13 21.83 0 20.2 0 20.2-5.95Q20.2-6.12 20.27-6.26 20.33-6.41 20.44-6.52 20.55-6.63 20.7-6.69 20.85-6.75 21.02-6.75L21.02-6.75 23.95-6.75Q24.29-6.75 24.68-6.63 25.06-6.52 25.41-6.25L25.41-6.25 25.41-6.75 27.61-6.75Q27.84-6.75 28.1-6.7 28.35-6.65 28.61-6.53 28.86-6.42 29.09-6.24 29.32-6.07 29.5-5.81 29.67-5.56 29.78-5.23 29.89-4.9 29.89-4.48L29.89-4.48 29.89 0 28.26 0 28.26-4.48Q28.26-4.8 28.1-4.96 27.94-5.13 27.61-5.13L27.61-5.13 26.15-5.13Q26.23-4.83 26.23-4.48L26.23-4.48ZM37.41-4.48L37.41 0 35.78 0 35.78-4.48Q35.78-4.8 35.61-4.96 35.45-5.13 35.11-5.13L35.11-5.13 33-5.13 33 0 31.38 0 31.38-5.95Q31.38-6.12 31.44-6.26 31.5-6.41 31.62-6.52 31.73-6.63 31.88-6.69 32.03-6.75 32.2-6.75L32.2-6.75 35.13-6.75Q35.46-6.75 35.85-6.63 36.24-6.52 36.59-6.25L36.59-6.25 36.59-6.75 38.79-6.75Q39.02-6.75 39.27-6.7 39.53-6.65 39.78-6.53 40.04-6.42 40.27-6.24 40.5-6.07 40.67-5.81 40.85-5.56 40.96-5.23 41.06-4.9 41.06-4.48L41.06-4.48 41.06 0 39.44 0 39.44-4.48Q39.44-4.8 39.28-4.96 39.12-5.13 38.79-5.13L38.79-5.13 37.33-5.13Q37.41-4.83 37.41-4.48L37.41-4.48ZM49.82-4.52L49.82-4.52Q49.82-4.18 49.7-3.79 49.58-3.4 49.32-3.06 49.05-2.73 48.62-2.51 48.2-2.28 47.58-2.28L47.58-2.28 44.65-2.28 44.65-3.82 47.58-3.82Q47.91-3.82 48.1-4.03 48.28-4.23 48.28-4.53L48.28-4.53Q48.28-4.85 48.07-5.03 47.87-5.21 47.58-5.21L47.58-5.21 44.65-5.21Q44.32-5.21 44.14-5.01 43.96-4.8 43.96-4.5L43.96-4.5 43.96-2.24Q43.96-1.91 44.16-1.73 44.37-1.55 44.67-1.55L44.67-1.55 47.58-1.55 47.58 0 44.65 0Q44.32 0 43.93-0.12 43.54-0.24 43.2-0.5 42.87-0.77 42.64-1.2 42.42-1.62 42.42-2.24L42.42-2.24 42.42-4.52Q42.42-4.85 42.54-5.24 42.65-5.63 42.92-5.97 43.19-6.3 43.61-6.53 44.04-6.75 44.65-6.75L44.65-6.75 47.58-6.75Q47.92-6.75 48.31-6.63 48.7-6.52 49.04-6.25 49.37-5.98 49.59-5.56 49.82-5.13 49.82-4.52ZM56.82-6.75L56.82-5.13 53.17-5.13Q52.84-5.13 52.67-4.96 52.5-4.8 52.5-4.48L52.5-4.48 52.5 0 50.88 0 50.88-4.48Q50.88-4.9 50.98-5.23 51.09-5.56 51.27-5.81 51.44-6.07 51.67-6.24 51.91-6.42 52.16-6.53 52.41-6.65 52.67-6.7 52.93-6.75 53.16-6.75L53.16-6.75 56.82-6.75ZM64.42-2.28L64.42-2.28Q64.42-1.86 64.31-1.53 64.21-1.19 64.03-0.94 63.86-0.69 63.63-0.51 63.39-0.33 63.14-0.22 62.89-0.11 62.63-0.05 62.37 0 62.14 0L62.14 0 57.74 0 57.74-1.62 62.13-1.62Q62.46-1.62 62.63-1.79 62.79-1.96 62.79-2.28L62.79-2.28Q62.76-2.93 62.14-2.93L62.14-2.93 59.62-2.93Q59.08-2.93 58.71-3.12 58.33-3.3 58.1-3.59 57.87-3.87 57.76-4.19 57.66-4.52 57.66-4.8L57.66-4.8Q57.66-5.34 57.85-5.71 58.05-6.08 58.34-6.32 58.63-6.55 58.98-6.65 59.32-6.75 59.62-6.75L59.62-6.75 63.61-6.75 63.61-5.13 59.63-5.13Q59.51-5.13 59.44-5.1 59.36-5.07 59.33-5.03 59.3-4.98 59.29-4.93 59.28-4.87 59.28-4.82L59.28-4.82Q59.29-4.72 59.32-4.67 59.35-4.61 59.4-4.59 59.45-4.56 59.51-4.56 59.56-4.55 59.62-4.55L59.62-4.55 62.14-4.55Q62.76-4.55 63.2-4.33 63.64-4.1 63.91-3.76 64.18-3.42 64.3-3.02 64.42-2.62 64.42-2.28ZM73-4.48L73-2.28Q73-2.05 72.95-1.79 72.9-1.54 72.78-1.28 72.67-1.03 72.49-0.8 72.31-0.57 72.06-0.39 71.81-0.21 71.48-0.11 71.15 0 70.73 0L70.73 0 67.8 0Q67.57 0 67.31-0.05 67.05-0.11 66.8-0.22 66.55-0.33 66.32-0.51 66.09-0.69 65.91-0.94 65.73-1.19 65.62-1.53 65.52-1.86 65.52-2.28L65.52-2.28 65.52-9.61 67.14-9.61 67.14-2.28Q67.14-1.98 67.33-1.8 67.52-1.62 67.8-1.62L67.8-1.62 70.73-1.62Q71.03-1.62 71.21-1.81 71.38-1.99 71.38-2.28L71.38-2.28 71.38-4.48Q71.38-4.79 71.2-4.96 71.02-5.13 70.73-5.13L70.73-5.13 67.8-5.13 67.8-6.75 70.73-6.75Q70.96-6.75 71.22-6.7 71.47-6.65 71.72-6.53 71.98-6.42 72.21-6.24 72.44-6.07 72.61-5.81 72.79-5.56 72.9-5.23 73-4.9 73-4.48L73-4.48ZM81.36-4.52L81.36-2.24Q81.36-1.9 81.24-1.51 81.12-1.12 80.86-0.78 80.59-0.45 80.16-0.22 79.74 0 79.12 0L79.12 0 76.19 0Q75.86 0 75.47-0.12 75.08-0.24 74.74-0.5 74.41-0.77 74.18-1.2 73.96-1.62 73.96-2.24L73.96-2.24Q73.96-2.57 74.08-2.97 74.2-3.36 74.46-3.7 74.73-4.03 75.15-4.25 75.58-4.48 76.19-4.48L76.19-4.48 79.12-4.48 79.12-2.93 76.19-2.93Q75.86-2.93 75.68-2.73 75.5-2.52 75.5-2.22L75.5-2.22Q75.5-1.91 75.71-1.73 75.92-1.55 76.21-1.55L76.21-1.55 79.12-1.55Q79.46-1.55 79.64-1.75 79.82-1.95 79.82-2.25L79.82-2.25 79.82-4.52Q79.82-4.84 79.62-5.02 79.42-5.21 79.12-5.21L79.12-5.21 75.56-5.21 75.56-6.75 79.12-6.75Q79.46-6.75 79.85-6.63 80.24-6.52 80.58-6.25 80.91-5.98 81.14-5.56 81.36-5.13 81.36-4.52L81.36-4.52ZM89.29-1.62L89.29 0 84.88 0Q84.55 0 84.15-0.12 83.75-0.24 83.41-0.51 83.07-0.78 82.84-1.22 82.61-1.65 82.61-2.28L82.61-2.28 82.61-4.48Q82.61-4.71 82.66-4.97 82.72-5.22 82.83-5.48 82.94-5.73 83.12-5.96 83.3-6.19 83.55-6.37 83.8-6.54 84.13-6.65 84.47-6.75 84.88-6.75L84.88-6.75 89.29-6.75 89.29-5.13 84.88-5.13Q84.57-5.13 84.4-4.97 84.23-4.8 84.23-4.47L84.23-4.47 84.23-2.28Q84.23-1.96 84.4-1.79 84.57-1.62 84.9-1.62L84.9-1.62 89.29-1.62ZM98.14-4.48L98.14 0 96.52 0 96.52-4.48Q96.52-4.8 96.35-4.96 96.19-5.13 95.87-5.13L95.87-5.13 92.94-5.13 92.94-6.75 95.87-6.75Q96.1-6.75 96.35-6.7 96.61-6.65 96.86-6.53 97.12-6.42 97.35-6.24 97.58-6.07 97.75-5.81 97.93-5.56 98.03-5.23 98.14-4.9 98.14-4.48L98.14-4.48ZM92.28-9.61L92.28 0 90.66 0 90.66-9.61 92.28-9.61ZM105.45-5.21L105.45-3.75 99.59-3.75 99.59-5.21 105.45-5.21ZM116.06-2.28L116.06-1.97Q116.06-1.67 115.95-1.32 115.85-0.98 115.62-0.69 115.38-0.39 115.01-0.2 114.63 0 114.09 0L114.09 0 107.92 0Q107.75 0 107.6-0.06 107.45-0.12 107.34-0.23 107.23-0.34 107.17-0.49 107.1-0.64 107.1-0.82L107.1-0.82 107.1-8.14Q107.1-8.31 107.17-8.46 107.23-8.61 107.34-8.72 107.45-8.83 107.6-8.9 107.75-8.96 107.92-8.96L107.92-8.96 113.36-8.96Q113.66-8.96 114-8.85 114.34-8.75 114.64-8.51 114.94-8.28 115.13-7.9 115.33-7.53 115.33-6.98L115.33-6.98 115.33-6.68Q115.33-6.25 115.19-5.75 115.04-5.25 114.73-4.81L114.73-4.81Q115-4.64 115.24-4.4 115.48-4.17 115.66-3.85 115.84-3.54 115.95-3.15 116.06-2.75 116.06-2.28L116.06-2.28ZM114.43-1.98L114.43-2.28Q114.43-2.6 114.33-2.85 114.23-3.1 114.05-3.29 113.87-3.47 113.61-3.56 113.36-3.66 113.04-3.66L113.04-3.66 109.38-3.66 109.38-5.3 112.31-5.3Q112.63-5.3 112.88-5.39 113.14-5.49 113.32-5.67 113.5-5.85 113.6-6.11 113.69-6.36 113.69-6.68L113.69-6.68 113.69-6.98Q113.69-7.33 113.36-7.33L113.36-7.33 108.73-7.33 108.73-1.62 114.09-1.62Q114.13-1.62 114.19-1.63 114.26-1.64 114.31-1.67 114.36-1.7 114.39-1.77 114.43-1.85 114.43-1.98L114.43-1.98ZM118.94-9.61L118.94-8.14 117.31-8.14 117.31-9.61 118.94-9.61ZM118.94-6.75L118.94 0 117.31 0 117.31-6.75 118.94-6.75ZM124.6-3.69L128.43 0 126.08 0 122.81-3.16Q122.53-3.41 122.55-3.79L122.55-3.79Q122.57-3.96 122.64-4.11 122.72-4.27 122.86-4.37L122.86-4.37 125.83-6.77 128.43-6.77 124.6-3.69ZM122.14-9.61L122.14 0 120.52 0 120.52-9.61 122.14-9.61ZM136.38-4.52L136.38-4.52Q136.38-4.18 136.27-3.79 136.15-3.4 135.88-3.06 135.62-2.73 135.19-2.51 134.76-2.28 134.15-2.28L134.15-2.28 131.22-2.28 131.22-3.82 134.15-3.82Q134.48-3.82 134.66-4.03 134.84-4.23 134.84-4.53L134.84-4.53Q134.84-4.85 134.64-5.03 134.43-5.21 134.15-5.21L134.15-5.21 131.22-5.21Q130.89-5.21 130.71-5.01 130.52-4.8 130.52-4.5L130.52-4.5 130.52-2.24Q130.52-1.91 130.73-1.73 130.93-1.55 131.23-1.55L131.23-1.55 134.15-1.55 134.15 0 131.22 0Q130.88 0 130.49-0.12 130.1-0.24 129.77-0.5 129.43-0.77 129.21-1.2 128.98-1.62 128.98-2.24L128.98-2.24 128.98-4.52Q128.98-4.85 129.1-5.24 129.22-5.63 129.48-5.97 129.75-6.3 130.18-6.53 130.61-6.75 131.22-6.75L131.22-6.75 134.15-6.75Q134.48-6.75 134.88-6.63 135.27-6.52 135.6-6.25 135.93-5.98 136.16-5.56 136.38-5.13 136.38-4.52ZM143.39-6.75L143.39-5.13 139.73-5.13Q139.4-5.13 139.23-4.96 139.06-4.8 139.06-4.48L139.06-4.48 139.06 0 137.44 0 137.44-4.48Q137.44-4.9 137.55-5.23 137.65-5.56 137.83-5.81 138.01-6.07 138.24-6.24 138.47-6.42 138.72-6.53 138.98-6.65 139.24-6.7 139.49-6.75 139.72-6.75L139.72-6.75 143.39-6.75ZM145.27-0.82L145.27-0.82Q145.27-0.65 145.21-0.5 145.14-0.36 145.03-0.25 144.92-0.14 144.78-0.07 144.63-0.01 144.47-0.01L144.47-0.01Q144.3-0.01 144.15-0.07 144-0.14 143.9-0.25 143.79-0.36 143.72-0.5 143.66-0.65 143.66-0.82L143.66-0.82Q143.66-0.98 143.72-1.13 143.79-1.27 143.9-1.38 144-1.49 144.15-1.56 144.3-1.62 144.47-1.62L144.47-1.62Q144.63-1.62 144.78-1.56 144.92-1.49 145.03-1.38 145.14-1.27 145.21-1.13 145.27-0.98 145.27-0.82ZM153.07-2.28L153.07-2.28Q153.07-1.86 152.96-1.53 152.86-1.19 152.68-0.94 152.51-0.69 152.28-0.51 152.04-0.33 151.79-0.22 151.54-0.11 151.28-0.05 151.02 0 150.79 0L150.79 0 146.39 0 146.39-1.62 150.78-1.62Q151.11-1.62 151.28-1.79 151.45-1.96 151.45-2.28L151.45-2.28Q151.41-2.93 150.79-2.93L150.79-2.93 148.27-2.93Q147.73-2.93 147.36-3.12 146.98-3.3 146.75-3.59 146.52-3.87 146.41-4.19 146.31-4.52 146.31-4.8L146.31-4.8Q146.31-5.34 146.5-5.71 146.7-6.08 146.99-6.32 147.28-6.55 147.63-6.65 147.97-6.75 148.27-6.75L148.27-6.75 152.26-6.75 152.26-5.13 148.28-5.13Q148.16-5.13 148.09-5.1 148.02-5.07 147.98-5.03 147.95-4.98 147.94-4.93 147.93-4.87 147.93-4.82L147.93-4.82Q147.94-4.72 147.97-4.67 148-4.61 148.05-4.59 148.1-4.56 148.16-4.56 148.22-4.55 148.27-4.55L148.27-4.55 150.79-4.55Q151.41-4.55 151.85-4.33 152.29-4.1 152.56-3.76 152.83-3.42 152.95-3.02 153.07-2.62 153.07-2.28ZM161.72-4.48L161.72 0 160.09 0 160.09-4.48Q160.09-4.8 159.93-4.96 159.77-5.13 159.44-5.13L159.44-5.13 156.51-5.13 156.51-6.75 159.44-6.75Q159.67-6.75 159.93-6.7 160.18-6.65 160.44-6.53 160.69-6.42 160.92-6.24 161.15-6.07 161.33-5.81 161.5-5.56 161.61-5.23 161.72-4.9 161.72-4.48L161.72-4.48ZM155.86-9.61L155.86 0 154.23 0 154.23-9.61 155.86-9.61ZM170.55-4.48L170.55-2.28Q170.55-1.86 170.44-1.53 170.34-1.19 170.16-0.94 169.99-0.69 169.75-0.51 169.52-0.33 169.27-0.22 169.02-0.11 168.76-0.05 168.5 0 168.27 0L168.27 0 165.34 0Q165 0 164.6-0.12 164.2-0.24 163.86-0.51 163.52-0.78 163.29-1.22 163.06-1.65 163.06-2.28L163.06-2.28 163.06-4.48Q163.06-5.1 163.29-5.54 163.52-5.97 163.86-6.24 164.2-6.52 164.6-6.63 165-6.75 165.34-6.75L165.34-6.75 168.27-6.75Q168.89-6.75 169.33-6.53 169.77-6.3 170.04-5.96 170.3-5.62 170.43-5.22 170.55-4.82 170.55-4.48L170.55-4.48ZM168.92-2.28L168.92-4.47Q168.92-4.8 168.76-4.97 168.59-5.13 168.27-5.13L168.27-5.13 165.35-5.13Q165.03-5.13 164.86-4.96 164.69-4.8 164.69-4.48L164.69-4.48 164.69-2.28Q164.69-1.96 164.86-1.79 165.03-1.62 165.35-1.62L165.35-1.62 168.27-1.62Q168.6-1.62 168.76-1.79 168.92-1.96 168.92-2.28L168.92-2.28ZM179.38-4.48L179.38-2.28Q179.38-1.86 179.27-1.53 179.16-1.19 178.99-0.94 178.81-0.69 178.58-0.51 178.35-0.33 178.1-0.22 177.84-0.11 177.59-0.05 177.33 0 177.1 0L177.1 0 174.17 0 174.17-1.62 177.1-1.62Q177.43-1.62 177.59-1.79 177.75-1.96 177.75-2.28L177.75-2.28 177.75-4.47Q177.75-4.8 177.59-4.97 177.42-5.13 177.1-5.13L177.1-5.13 174.18-5.13Q173.85-5.13 173.68-4.96 173.52-4.8 173.52-4.48L173.52-4.48 173.52 2.11 171.89 2.11 171.89-4.48Q171.89-4.9 172-5.23 172.1-5.56 172.28-5.81 172.46-6.07 172.69-6.24 172.92-6.42 173.18-6.53 173.43-6.65 173.69-6.7 173.95-6.75 174.17-6.75L174.17-6.75 177.1-6.75Q177.52-6.75 177.85-6.65 178.18-6.54 178.44-6.37 178.69-6.19 178.87-5.96 179.04-5.73 179.16-5.48 179.27-5.22 179.32-4.97 179.38-4.71 179.38-4.48L179.38-4.48Z" transform="translate(-0.8199999928474426, 9.609999656677246)"></path></g> </g></g> </g></g><defs v-gra="od"></defs></g></svg>